<svg width="85" height="85" viewBox="0 0 85 85" fill="none" xmlns="http://www.w3.org/2000/svg">
<circle cx="42.5" cy="42.5" r="42.5" fill="#15B38D"/>
<path d="M66.5815 62.6282L54.7637 50.8104C59.9257 44.6717 59.6467 35.3939 53.8568 29.604C47.7181 23.4653 37.7427 23.4653 31.604 29.604C25.4653 35.7427 25.4653 45.7181 31.604 51.8568C34.6734 54.8564 38.7193 56.3911 42.6955 56.3911C46.2532 56.3911 49.8806 55.1354 52.7407 52.7637L64.5585 64.5815C64.9073 64.8605 65.2561 65 65.6048 65C65.9536 65 66.3024 64.8605 66.5815 64.5815C67.1395 64.0234 67.1395 63.1863 66.5815 62.6282ZM51.8338 49.8338C46.8113 54.8564 38.5798 54.8564 33.5572 49.8338C28.5347 44.8113 28.5347 36.5798 33.5572 31.5572C36.0685 29.046 39.4169 27.7903 42.6955 27.7903C45.9742 27.7903 49.3225 29.046 51.8338 31.5572C56.8564 36.5798 56.8564 44.8113 51.8338 49.8338ZM51.0665 40.6955C51.0665 41.4629 50.4387 42.0907 49.6713 42.0907H44.0907V47.6713C44.0907 48.4387 43.4629 49.0665 42.6955 49.0665C41.9282 49.0665 41.3004 48.4387 41.3004 47.6713V42.0907H35.7197C34.9524 42.0907 34.3246 41.4629 34.3246 40.6955C34.3246 39.9282 34.9524 39.3004 35.7197 39.3004H41.3004V33.7197C41.3004 32.9524 41.9282 32.3246 42.6955 32.3246C43.4629 32.3246 44.0907 32.9524 44.0907 33.7197V39.3004H49.6713C50.4387 39.3004 51.0665 39.9282 51.0665 40.6955Z" fill="white"/>
</svg>
